  0
SECTION
  2
HEADER
  9
$ACADVER
  1
AC1014
  9
$HANDSEED
  5
FFFF
  9
$MEASUREMENT
 70
     1
  0
ENDSEC
  0
SECTION
  2
TABLES
  0
TABLE
  2
VPORT
  5
8
330
0
100
AcDbSymbolTable
 70
     4
  0
VPORT
  5
2E
330
8
100
AcDbSymbolTableRecord
100
AcDbViewportTableRecord
  2
*ACTIVE
 70
     0
 10
0.0
 20
0.0
 11
1.0
 21
1.0
 12
210.0
 22
148.5
 13
0.0
 23
0.0
 14
10.0
 24
10.0
 15
10.0
 25
10.0
 16
0.0
 26
0.0
 36
1.0
 17
0.0
 27
0.0
 37
0.0
 40
341.0
 41
1.24
 42
50.0
 43
0.0
 44
0.0
 50
0.0
 51
0.0
 71
     0
 72
   100
 73
     1
 74
     3
 75
     0
 76
     0
 77
     0
 78
     0
  0
ENDTAB
  0
TABLE
  2
LTYPE
  5
5
330
0
100
AcDbSymbolTable
 70
     1
  0
LTYPE
  5
14
330
5
100
AcDbSymbolTableRecord
100
AcDbLinetypeTableRecord
  2
BYBLOCK
 70
     0
  3

 72
    65
 73
     0
 40
0.0
  0
LTYPE
  5
15
330
5
100
AcDbSymbolTableRecord
100
AcDbLinetypeTableRecord
  2
BYLAYER
 70
     0
  3

 72
    65
 73
     0
 40
0.0
  0
LTYPE
  5
16
330
5
100
AcDbSymbolTableRecord
100
AcDbLinetypeTableRecord
  2
CONTINUOUS
 70
     0
  3
Solid line
 72
    65
 73
     0
 40
0.0
  0
ENDTAB
  0
TABLE
  2
LAYER
  5
2
100
AcDbSymbolTable
 70
2
  0
LAYER
  5
50
100
AcDbSymbolTableRecord
100
AcDbLayerTableRecord
  2
0
 70
0
  6
CONTINUOUS
  0
LAYER
  5
51
100
AcDbSymbolTableRecord
100
AcDbLayerTableRecord
  2
Camada_1
 70
0
  6
CONTINUOUS
  0
ENDTAB
  0
TABLE
  2
STYLE
  5
3
330
0
100
AcDbSymbolTable
 70
     1
  0
STYLE
  5
11
330
3
100
AcDbSymbolTableRecord
100
AcDbTextStyleTableRecord
  2
STANDARD
 70
     0
 40
0.0
 41
1.0
 50
0.0
 71
     0
 42
2.5
  3
txt
  4

  0
ENDTAB
  0
TABLE
  2
VIEW
  5
6
330
0
100
AcDbSymbolTable
 70
     0
  0
ENDTAB
  0
TABLE
  2
UCS
  5
7
330
0
100
AcDbSymbolTable
 70
     0
  0
ENDTAB
  0
TABLE
  2
APPID
  5
9
330
0
100
AcDbSymbolTable
 70
     2
  0
APPID
  5
12
330
9
100
AcDbSymbolTableRecord
100
AcDbRegAppTableRecord
  2
ACAD
 70
     0
  0
ENDTAB
  0
TABLE
  2
DIMSTYLE
  5
A
330
0
100
AcDbSymbolTable
 70
     1
  0
DIMSTYLE
105
27
330
A
100
AcDbSymbolTableRecord
100
AcDbDimStyleTableRecord
  2
ISO-25
 70
     0
  3

  4

  5

  6

  7

 40
1.0
 41
2.5
 42
0.625
 43
3.75
 44
1.25
 45
0.0
 46
0.0
 47
0.0
 48
0.0
140
2.5
141
2.5
142
0.0
143
0.03937007874016
144
1.0
145
0.0
146
1.0
147
0.625
 71
     0
 72
     0
 73
     0
 74
     0
 75
     0
 76
     0
 77
     1
 78
     8
170
     0
171
     3
172
     1
173
     0
174
     0
175
     0
176
     0
177
     0
178
     0
270
     2
271
     2
272
     2
273
     2
274
     3
340
11
275
     0
280
     0
281
     0
282
     0
283
     0
284
     8
285
     0
286
     0
287
     3
288
     0
  0
ENDTAB
  0
TABLE
  2
BLOCK_RECORD
  5
1
330
0
100
AcDbSymbolTable
 70
     1
  0
BLOCK_RECORD
  5
1F
330
1
100
AcDbSymbolTableRecord
100
AcDbBlockTableRecord
  2
*MODEL_SPACE
  0
BLOCK_RECORD
  5
1B
330
1
100
AcDbSymbolTableRecord
100
AcDbBlockTableRecord
  2
*PAPER_SPACE
  0
ENDTAB
  0
ENDSEC
  0
SECTION
  2
BLOCKS
  0
BLOCK
  5
20
330
1F
100
AcDbEntity
  8
0
100
AcDbBlockBegin
  2
*MODEL_SPACE
 70
     0
 10
0.0
 20
0.0
 30
0.0
  3
*MODEL_SPACE
  1

  0
ENDBLK
  5
21
330
1F
100
AcDbEntity
  8
0
100
AcDbBlockEnd
  0
BLOCK
  5
1C
330
1B
100
AcDbEntity
 67
     1
  8
0
100
AcDbBlockBegin
  2
*PAPER_SPACE
  1

  0
ENDBLK
  5
1D
330
1B
100
AcDbEntity
 67
     1
  8
0
100
AcDbBlockEnd
  0
ENDSEC
  0
SECTION
  2
ENTITIES
  0
SPLINE
  5
100
100
AcDbEntity
  8
Camada_1
 62
7
100
AcDbSpline
 70
8
 71
3
 72
8
 73
4
 74
0
 40
0
 40
0
 40
0
 40
0
 40
1
 40
1
 40
1
 40
1
 10
74.493127
 20
202.878613
 30
0.0
 10
73.939127
 20
202.878613
 30
0.0
 10
73.492671
 20
202.432676
 30
0.0
 10
73.492671
 20
201.878676
 30
0.0
  0
SPLINE
  5
101
100
AcDbEntity
  8
Camada_1
 62
7
100
AcDbSpline
 70
8
 71
3
 72
8
 73
4
 74
0
 40
0
 40
0
 40
0
 40
0
 40
1
 40
1
 40
1
 40
1
 10
73.493187
 20
119.147292
 30
0.0
 10
73.506607
 20
118.613940
 30
0.0
 10
73.933435
 20
118.186627
 30
0.0
 10
74.466772
 20
118.173191
 30
0.0
  0
LWPOLYLINE
  5
102
100
AcDbEntity
  8
Camada_1
 62
7
100
AcDbPolyline
 90
6
 70
0
 10
73.492671
 20
201.878676
 30
0.0
 10
73.492671
 20
192.878707
 30
0.0
 10
73.492671
 20
122.878848
 30
0.0
 10
73.492671
 20
118.173191
 30
0.0
 10
73.493187
 20
118.173191
 30
0.0
 10
73.493187
 20
119.147292
 30
0.0
  0
SPLINE
  5
103
100
AcDbEntity
  8
Camada_1
 62
7
100
AcDbSpline
 70
8
 71
3
 72
8
 73
4
 74
0
 40
0
 40
0
 40
0
 40
0
 40
1
 40
1
 40
1
 40
1
 10
74.998005
 20
118.173191
 30
0.0
 10
75.552005
 20
118.173191
 30
0.0
 10
75.998461
 20
118.619131
 30
0.0
 10
75.998461
 20
119.173131
 30
0.0
  0
LWPOLYLINE
  5
104
100
AcDbEntity
  8
Camada_1
 62
7
100
AcDbPolyline
 90
2
 70
0
 10
74.466772
 20
118.173191
 30
0.0
 10
74.998005
 20
118.173191
 30
0.0
  0
SPLINE
  5
105
100
AcDbEntity
  8
Camada_1
 62
7
100
AcDbSpline
 70
8
 71
3
 72
8
 73
4
 74
0
 40
0
 40
0
 40
0
 40
0
 40
1
 40
1
 40
1
 40
1
 10
75.998461
 20
121.878908
 30
0.0
 10
75.998461
 20
122.432909
 30
0.0
 10
76.444916
 20
122.878848
 30
0.0
 10
76.998916
 20
122.878848
 30
0.0
  0
LWPOLYLINE
  5
106
100
AcDbEntity
  8
Camada_1
 62
7
100
AcDbPolyline
 90
2
 70
0
 10
75.998461
 20
119.173131
 30
0.0
 10
75.998461
 20
121.878908
 30
0.0
  0
SPLINE
  5
107
100
AcDbEntity
  8
Camada_1
 62
7
100
AcDbSpline
 70
8
 71
3
 72
8
 73
4
 74
0
 40
0
 40
0
 40
0
 40
0
 40
1
 40
1
 40
1
 40
1
 10
80.492244
 20
122.878848
 30
0.0
 10
81.046242
 20
122.878848
 30
0.0
 10
81.492700
 20
123.324788
 30
0.0
 10
81.492700
 20
123.878785
 30
0.0
  0
LWPOLYLINE
  5
108
100
AcDbEntity
  8
Camada_1
 62
7
100
AcDbPolyline
 90
2
 70
0
 10
76.998916
 20
122.878848
 30
0.0
 10
80.492244
 20
122.878848
 30
0.0
  0
SPLINE
  5
109
100
AcDbEntity
  8
Camada_1
 62
7
100
AcDbSpline
 70
8
 71
3
 72
8
 73
4
 74
0
 40
0
 40
0
 40
0
 40
0
 40
1
 40
1
 40
1
 40
1
 10
81.492700
 20
191.878770
 30
0.0
 10
81.492700
 20
192.432768
 30
0.0
 10
81.939155
 20
192.878707
 30
0.0
 10
82.493156
 20
192.878707
 30
0.0
  0
LWPOLYLINE
  5
10a
100
AcDbEntity
  8
Camada_1
 62
7
100
AcDbPolyline
 90
2
 70
0
 10
81.492700
 20
123.878785
 30
0.0
 10
81.492700
 20
191.878770
 30
0.0
  0
SPLINE
  5
10b
100
AcDbEntity
  8
Camada_1
 62
7
100
AcDbSpline
 70
8
 71
3
 72
8
 73
4
 74
0
 40
0
 40
0
 40
0
 40
0
 40
1
 40
1
 40
1
 40
1
 10
84.518353
 20
192.879226
 30
0.0
 10
85.051706
 20
192.892646
 30
0.0
 10
85.479018
 20
193.319471
 30
0.0
 10
85.492454
 20
193.852808
 30
0.0
  0
LWPOLYLINE
  5
10c
100
AcDbEntity
  8
Camada_1
 62
7
100
AcDbPolyline
 90
4
 70
0
 10
82.493156
 20
192.878707
 30
0.0
 10
85.492454
 20
192.878707
 30
0.0
 10
85.492454
 20
192.879226
 30
0.0
 10
84.518353
 20
192.879226
 30
0.0
  0
SPLINE
  5
10d
100
AcDbEntity
  8
Camada_1
 62
7
100
AcDbSpline
 70
8
 71
3
 72
8
 73
4
 74
0
 40
0
 40
0
 40
0
 40
0
 40
1
 40
1
 40
1
 40
1
 10
85.491938
 20
201.904513
 30
0.0
 10
85.478518
 20
202.437865
 30
0.0
 10
85.051690
 20
202.865180
 30
0.0
 10
84.518353
 20
202.878613
 30
0.0
  0
LWPOLYLINE
  5
10e
100
AcDbEntity
  8
Camada_1
 62
7
100
AcDbPolyline
 90
4
 70
0
 10
85.492454
 20
193.852808
 30
0.0
 10
85.492454
 20
202.878613
 30
0.0
 10
85.491938
 20
202.878613
 30
0.0
 10
85.491938
 20
201.904513
 30
0.0
  0
SPLINE
  5
10f
100
AcDbEntity
  8
Camada_1
 62
7
100
AcDbSpline
 70
8
 71
3
 72
8
 73
4
 74
0
 40
0
 40
0
 40
0
 40
0
 40
1
 40
1
 40
1
 40
1
 10
79.388950
 20
199.563056
 30
0.0
 10
80.320201
 20
199.563023
 30
0.0
 10
81.075120
 20
198.808103
 30
0.0
 10
81.075153
 20
197.876853
 30
0.0
  0
SPLINE
  5
110
100
AcDbEntity
  8
Camada_1
 62
7
100
AcDbSpline
 70
8
 71
3
 72
8
 73
4
 74
0
 40
0
 40
0
 40
0
 40
0
 40
1
 40
1
 40
1
 40
1
 10
81.075153
 20
197.876853
 30
0.0
 10
81.075274
 20
197.429560
 30
0.0
 10
80.897676
 20
197.000544
 30
0.0
 10
80.581441
 20
196.684212
 30
0.0
  0
SPLINE
  5
111
100
AcDbEntity
  8
Camada_1
 62
7
100
AcDbSpline
 70
8
 71
3
 72
8
 73
4
 74
0
 40
0
 40
0
 40
0
 40
0
 40
1
 40
1
 40
1
 40
1
 10
80.581441
 20
196.684212
 30
0.0
 10
80.265205
 20
196.367879
 30
0.0
 10
79.836244
 20
196.190150
 30
0.0
 10
79.388950
 20
196.190134
 30
0.0
  0
SPLINE
  5
112
100
AcDbEntity
  8
Camada_1
 62
7
100
AcDbSpline
 70
8
 71
3
 72
8
 73
4
 74
0
 40
0
 40
0
 40
0
 40
0
 40
1
 40
1
 40
1
 40
1
 10
79.388950
 20
196.190134
 30
0.0
 10
78.941658
 20
196.190151
 30
0.0
 10
78.512697
 20
196.367880
 30
0.0
 10
78.196462
 20
196.684213
 30
0.0
  0
SPLINE
  5
113
100
AcDbEntity
  8
Camada_1
 62
7
100
AcDbSpline
 70
8
 71
3
 72
8
 73
4
 74
0
 40
0
 40
0
 40
0
 40
0
 40
1
 40
1
 40
1
 40
1
 10
78.196462
 20
196.684213
 30
0.0
 10
77.880227
 20
197.000545
 30
0.0
 10
77.702629
 20
197.429560
 30
0.0
 10
77.702750
 20
197.876853
 30
0.0
  0
SPLINE
  5
114
100
AcDbEntity
  8
Camada_1
 62
7
100
AcDbSpline
 70
8
 71
3
 72
8
 73
4
 74
0
 40
0
 40
0
 40
0
 40
0
 40
1
 40
1
 40
1
 40
1
 10
77.702750
 20
197.876853
 30
0.0
 10
77.702784
 20
198.808102
 30
0.0
 10
78.457701
 20
199.563021
 30
0.0
 10
79.388950
 20
199.563056
 30
0.0
  0
LWPOLYLINE
  5
115
100
AcDbEntity
  8
Camada_1
 62
7
100
AcDbPolyline
 90
4
 70
0
 10
84.518353
 20
202.878613
 30
0.0
 10
81.492700
 20
202.878613
 30
0.0
 10
74.493127
 20
202.878613
 30
0.0
 10
74.493127
 20
202.878613
 30
0.0
  0
SPLINE
  5
116
100
AcDbEntity
  8
Camada_1
 62
7
100
AcDbSpline
 70
8
 71
3
 72
8
 73
4
 74
0
 40
0
 40
0
 40
0
 40
0
 40
1
 40
1
 40
1
 40
1
 10
-607.573417
 20
-96.817587
 30
0.0
 10
-610.248601
 20
-96.817587
 30
0.0
 10
-612.660368
 20
-98.429079
 30
0.0
 10
-613.684117
 20
-100.900626
 30
0.0
  0
SPLINE
  5
117
100
AcDbEntity
  8
Camada_1
 62
7
100
AcDbSpline
 70
8
 71
3
 72
8
 73
4
 74
0
 40
0
 40
0
 40
0
 40
0
 40
1
 40
1
 40
1
 40
1
 10
-613.684117
 20
-100.900626
 30
0.0
 10
-614.707865
 20
-103.372173
 30
0.0
 10
-614.141984
 20
-106.217047
 30
0.0
 10
-612.250344
 20
-108.108687
 30
0.0
  0
SPLINE
  5
118
100
AcDbEntity
  8
Camada_1
 62
7
100
AcDbSpline
 70
8
 71
3
 72
8
 73
4
 74
0
 40
0
 40
0
 40
0
 40
0
 40
1
 40
1
 40
1
 40
1
 10
-612.250344
 20
-108.108687
 30
0.0
 10
-610.358704
 20
-110.000328
 30
0.0
 10
-607.513830
 20
-110.566208
 30
0.0
 10
-605.042283
 20
-109.542460
 30
0.0
  0
SPLINE
  5
119
100
AcDbEntity
  8
Camada_1
 62
7
100
AcDbSpline
 70
8
 71
3
 72
8
 73
4
 74
0
 40
0
 40
0
 40
0
 40
0
 40
1
 40
1
 40
1
 40
1
 10
-605.042283
 20
-109.542460
 30
0.0
 10
-602.570736
 20
-108.518712
 30
0.0
 10
-600.959244
 20
-106.106944
 30
0.0
 10
-600.959244
 20
-103.431761
 30
0.0
  0
SPLINE
  5
11a
100
AcDbEntity
  8
Camada_1
 62
7
100
AcDbSpline
 70
8
 71
3
 72
8
 73
4
 74
0
 40
0
 40
0
 40
0
 40
0
 40
1
 40
1
 40
1
 40
1
 10
-600.959244
 20
-103.431761
 30
0.0
 10
-600.959244
 20
-99.778854
 30
0.0
 10
-603.920510
 20
-96.817587
 30
0.0
 10
-607.573417
 20
-96.817587
 30
0.0
  0
LWPOLYLINE
  5
11b
100
AcDbEntity
  8
Camada_1
 62
7
100
AcDbPolyline
 90
1
 70
1
 10
79.388950
 20
199.563056
 30
0.0
  0
LWPOLYLINE
  5
11c
100
AcDbEntity
  8
Camada_1
 62
7
100
AcDbPolyline
 90
1
 70
1
 10
-607.573417
 20
-96.817587
 30
0.0
  0
LWPOLYLINE
  5
11d
100
AcDbEntity
  8
Camada_1
 62
5
100
AcDbPolyline
 90
4
 70
1
 10
-315.765899
 20
-422.387263
 30
0.0
 10
-315.765899
 20
-120.025058
 30
0.0
 10
-285.529678
 20
-120.025058
 30
0.0
 10
-285.529678
 20
-422.387263
 30
0.0
  0
SPLINE
  5
11e
100
AcDbEntity
  8
Camada_1
 62
7
100
AcDbSpline
 70
8
 71
3
 72
8
 73
4
 74
0
 40
0
 40
0
 40
0
 40
0
 40
1
 40
1
 40
1
 40
1
 10
-618.820346
 20
-138.353613
 30
0.0
 10
-621.495530
 20
-138.353613
 30
0.0
 10
-623.907297
 20
-139.965104
 30
0.0
 10
-624.931046
 20
-142.436651
 30
0.0
  0
SPLINE
  5
11f
100
AcDbEntity
  8
Camada_1
 62
7
100
AcDbSpline
 70
8
 71
3
 72
8
 73
4
 74
0
 40
0
 40
0
 40
0
 40
0
 40
1
 40
1
 40
1
 40
1
 10
-624.931046
 20
-142.436651
 30
0.0
 10
-625.954794
 20
-144.908198
 30
0.0
 10
-625.388913
 20
-147.753072
 30
0.0
 10
-623.497273
 20
-149.644713
 30
0.0
  0
SPLINE
  5
120
100
AcDbEntity
  8
Camada_1
 62
7
100
AcDbSpline
 70
8
 71
3
 72
8
 73
4
 74
0
 40
0
 40
0
 40
0
 40
0
 40
1
 40
1
 40
1
 40
1
 10
-623.497273
 20
-149.644713
 30
0.0
 10
-621.605633
 20
-151.536353
 30
0.0
 10
-618.760759
 20
-152.102233
 30
0.0
 10
-616.289212
 20
-151.078485
 30
0.0
  0
SPLINE
  5
121
100
AcDbEntity
  8
Camada_1
 62
7
100
AcDbSpline
 70
8
 71
3
 72
8
 73
4
 74
0
 40
0
 40
0
 40
0
 40
0
 40
1
 40
1
 40
1
 40
1
 10
-616.289212
 20
-151.078485
 30
0.0
 10
-613.817665
 20
-150.054737
 30
0.0
 10
-612.206173
 20
-147.642969
 30
0.0
 10
-612.206173
 20
-144.967786
 30
0.0
  0
SPLINE
  5
122
100
AcDbEntity
  8
Camada_1
 62
7
100
AcDbSpline
 70
8
 71
3
 72
8
 73
4
 74
0
 40
0
 40
0
 40
0
 40
0
 40
1
 40
1
 40
1
 40
1
 10
-612.206173
 20
-144.967786
 30
0.0
 10
-612.206173
 20
-141.314879
 30
0.0
 10
-615.167439
 20
-138.353613
 30
0.0
 10
-618.820346
 20
-138.353613
 30
0.0
  0
LWPOLYLINE
  5
123
100
AcDbEntity
  8
Camada_1
 62
7
100
AcDbPolyline
 90
4
 70
1
 10
-330.884009
 20
-157.820334
 30
0.0
 10
-330.884009
 20
-120.025058
 30
0.0
 10
-285.529678
 20
-120.025058
 30
0.0
 10
-285.529678
 20
-157.820334
 30
0.0
  0
LWPOLYLINE
  5
124
100
AcDbEntity
  8
Camada_1
 62
7
100
AcDbPolyline
 90
1
 70
1
 10
-618.820346
 20
-138.353613
 30
0.0
  0
LWPOLYLINE
  5
125
100
AcDbEntity
  8
Camada_1
 62
7
100
AcDbPolyline
 90
4
 70
1
 10
-175.450927
 20
-115.857260
 30
0.0
 10
-94.179390
 20
-115.857260
 30
0.0
 10
-94.179390
 20
-147.810170
 30
0.0
 10
-175.450927
 20
-147.810170
 30
0.0
  0
LWPOLYLINE
  5
126
100
AcDbEntity
  8
Camada_1
 62
7
100
AcDbPolyline
 90
4
 70
1
 10
-126.132302
 20
-147.810180
 30
0.0
 10
-126.132302
 20
-66.538643
 30
0.0
 10
-94.179393
 20
-66.538643
 30
0.0
 10
-94.179393
 20
-147.810180
 30
0.0
  0
SPLINE
  5
127
100
AcDbEntity
  8
Camada_1
 62
7
100
AcDbSpline
 70
8
 71
3
 72
8
 73
4
 74
0
 40
0
 40
0
 40
0
 40
0
 40
1
 40
1
 40
1
 40
1
 10
-105.652110
 20
177.321380
 30
0.0
 10
-104.720858
 20
177.321345
 30
0.0
 10
-103.965939
 20
176.566422
 30
0.0
 10
-103.965910
 20
175.635170
 30
0.0
  0
SPLINE
  5
128
100
AcDbEntity
  8
Camada_1
 62
7
100
AcDbSpline
 70
8
 71
3
 72
8
 73
4
 74
0
 40
0
 40
0
 40
0
 40
0
 40
1
 40
1
 40
1
 40
1
 10
-103.965910
 20
175.635170
 30
0.0
 10
-103.965789
 20
175.187877
 30
0.0
 10
-104.143386
 20
174.758862
 30
0.0
 10
-104.459621
 20
174.442529
 30
0.0
  0
SPLINE
  5
129
100
AcDbEntity
  8
Camada_1
 62
7
100
AcDbSpline
 70
8
 71
3
 72
8
 73
4
 74
0
 40
0
 40
0
 40
0
 40
0
 40
1
 40
1
 40
1
 40
1
 10
-104.459621
 20
174.442529
 30
0.0
 10
-104.775856
 20
174.126196
 30
0.0
 10
-105.204817
 20
173.948467
 30
0.0
 10
-105.652110
 20
173.948450
 30
0.0
  0
SPLINE
  5
12a
100
AcDbEntity
  8
Camada_1
 62
7
100
AcDbSpline
 70
8
 71
3
 72
8
 73
4
 74
0
 40
0
 40
0
 40
0
 40
0
 40
1
 40
1
 40
1
 40
1
 10
-105.652110
 20
173.948450
 30
0.0
 10
-106.099403
 20
173.948467
 30
0.0
 10
-106.528364
 20
174.126196
 30
0.0
 10
-106.844599
 20
174.442529
 30
0.0
  0
SPLINE
  5
12b
100
AcDbEntity
  8
Camada_1
 62
7
100
AcDbSpline
 70
8
 71
3
 72
8
 73
4
 74
0
 40
0
 40
0
 40
0
 40
0
 40
1
 40
1
 40
1
 40
1
 10
-106.844599
 20
174.442529
 30
0.0
 10
-107.160834
 20
174.758862
 30
0.0
 10
-107.338431
 20
175.187877
 30
0.0
 10
-107.338310
 20
175.635170
 30
0.0
  0
SPLINE
  5
12c
100
AcDbEntity
  8
Camada_1
 62
7
100
AcDbSpline
 70
8
 71
3
 72
8
 73
4
 74
0
 40
0
 40
0
 40
0
 40
0
 40
1
 40
1
 40
1
 40
1
 10
-107.338310
 20
175.635170
 30
0.0
 10
-107.338281
 20
176.566422
 30
0.0
 10
-106.583362
 20
177.321345
 30
0.0
 10
-105.652110
 20
177.321380
 30
0.0
  0
LWPOLYLINE
  5
12d
100
AcDbEntity
  8
Camada_1
 62
7
100
AcDbPolyline
 90
11
 70
1
 10
-111.548390
 20
180.636930
 30
0.0
 10
-111.548390
 20
170.637030
 30
0.0
 10
-111.548390
 20
100.637170
 30
0.0
 10
-111.548390
 20
95.931510
 30
0.0
 10
-109.042600
 20
95.931510
 30
0.0
 10
-109.042600
 20
100.637170
 30
0.0
 10
-103.548360
 20
100.637170
 30
0.0
 10
-103.548360
 20
170.637030
 30
0.0
 10
-99.548606
 20
170.637030
 30
0.0
 10
-99.548606
 20
180.636930
 30
0.0
 10
-103.548360
 20
180.636930
 30
0.0
  0
LWPOLYLINE
  5
12e
100
AcDbEntity
  8
Camada_1
 62
7
100
AcDbPolyline
 90
1
 70
1
 10
-105.652110
 20
177.321380
 30
0.0
  0
SPLINE
  5
12f
100
AcDbEntity
  8
Camada_1
 62
7
100
AcDbSpline
 70
8
 71
3
 72
8
 73
4
 74
0
 40
0
 40
0
 40
0
 40
0
 40
1
 40
1
 40
1
 40
1
 10
-490.767761
 20
-436.182266
 30
0.0
 10
-490.767761
 20
-437.184659
 30
0.0
 10
-491.165960
 20
-438.145997
 30
0.0
 10
-491.874759
 20
-438.854796
 30
0.0
  0
SPLINE
  5
130
100
AcDbEntity
  8
Camada_1
 62
7
100
AcDbSpline
 70
8
 71
3
 72
8
 73
4
 74
0
 40
0
 40
0
 40
0
 40
0
 40
1
 40
1
 40
1
 40
1
 10
-491.874759
 20
-438.854796
 30
0.0
 10
-492.583558
 20
-439.563595
 30
0.0
 10
-493.544895
 20
-439.961794
 30
0.0
 10
-494.547288
 20
-439.961794
 30
0.0
  0
LWPOLYLINE
  5
131
100
AcDbEntity
  8
Camada_1
 62
7
100
AcDbPolyline
 90
2
 70
0
 10
-490.767761
 20
-123.993298
 30
0.0
 10
-490.767761
 20
-436.182266
 30
0.0
  0
SPLINE
  5
132
100
AcDbEntity
  8
Camada_1
 62
7
100
AcDbSpline
 70
8
 71
3
 72
8
 73
4
 74
0
 40
0
 40
0
 40
0
 40
0
 40
1
 40
1
 40
1
 40
1
 10
-517.224454
 20
-439.961794
 30
0.0
 10
-518.226847
 20
-439.961794
 30
0.0
 10
-519.188184
 20
-439.563595
 30
0.0
 10
-519.896983
 20
-438.854796
 30
0.0
  0
SPLINE
  5
133
100
AcDbEntity
  8
Camada_1
 62
7
100
AcDbSpline
 70
8
 71
3
 72
8
 73
4
 74
0
 40
0
 40
0
 40
0
 40
0
 40
1
 40
1
 40
1
 40
1
 10
-519.896983
 20
-438.854796
 30
0.0
 10
-520.605782
 20
-438.145997
 30
0.0
 10
-521.003981
 20
-437.184659
 30
0.0
 10
-521.003981
 20
-436.182266
 30
0.0
  0
LWPOLYLINE
  5
134
100
AcDbEntity
  8
Camada_1
 62
7
100
AcDbPolyline
 90
2
 70
0
 10
-494.547288
 20
-439.961794
 30
0.0
 10
-517.224454
 20
-439.961794
 30
0.0
  0
SPLINE
  5
135
100
AcDbEntity
  8
Camada_1
 62
7
100
AcDbSpline
 70
8
 71
3
 72
8
 73
4
 74
0
 40
0
 40
0
 40
0
 40
0
 40
1
 40
1
 40
1
 40
1
 10
-521.003981
 20
-123.993298
 30
0.0
 10
-521.003981
 20
-122.990905
 30
0.0
 10
-520.605782
 20
-122.029567
 30
0.0
 10
-519.896983
 20
-121.320768
 30
0.0
  0
SPLINE
  5
136
100
AcDbEntity
  8
Camada_1
 62
7
100
AcDbSpline
 70
8
 71
3
 72
8
 73
4
 74
0
 40
0
 40
0
 40
0
 40
0
 40
1
 40
1
 40
1
 40
1
 10
-519.896983
 20
-121.320768
 30
0.0
 10
-519.188184
 20
-120.611969
 30
0.0
 10
-518.226847
 20
-120.213770
 30
0.0
 10
-517.224454
 20
-120.213770
 30
0.0
  0
LWPOLYLINE
  5
137
100
AcDbEntity
  8
Camada_1
 62
7
100
AcDbPolyline
 90
2
 70
0
 10
-521.003981
 20
-436.182266
 30
0.0
 10
-521.003981
 20
-123.993298
 30
0.0
  0
SPLINE
  5
138
100
AcDbEntity
  8
Camada_1
 62
7
100
AcDbSpline
 70
8
 71
3
 72
8
 73
4
 74
0
 40
0
 40
0
 40
0
 40
0
 40
1
 40
1
 40
1
 40
1
 10
-494.547288
 20
-120.213770
 30
0.0
 10
-493.544895
 20
-120.213770
 30
0.0
 10
-492.583558
 20
-120.611969
 30
0.0
 10
-491.874759
 20
-121.320768
 30
0.0
  0
SPLINE
  5
139
100
AcDbEntity
  8
Camada_1
 62
7
100
AcDbSpline
 70
8
 71
3
 72
8
 73
4
 74
0
 40
0
 40
0
 40
0
 40
0
 40
1
 40
1
 40
1
 40
1
 10
-491.874759
 20
-121.320768
 30
0.0
 10
-491.165960
 20
-122.029567
 30
0.0
 10
-490.767761
 20
-122.990905
 30
0.0
 10
-490.767761
 20
-123.993298
 30
0.0
  0
LWPOLYLINE
  5
13a
100
AcDbEntity
  8
Camada_1
 62
7
100
AcDbPolyline
 90
2
 70
0
 10
-517.224454
 20
-120.213770
 30
0.0
 10
-494.547288
 20
-120.213770
 30
0.0
  0
LWPOLYLINE
  5
13b
100
AcDbEntity
  8
Camada_1
 62
7
100
AcDbPolyline
 90
1
 70
1
 10
-490.767761
 20
-123.993298
 30
0.0
  0
LWPOLYLINE
  5
13c
100
AcDbEntity
  8
Camada_1
 62
7
100
AcDbPolyline
 90
4
 70
1
 10
-484.227099
 20
-421.777776
 30
0.0
 10
-474.741166
 20
-421.777776
 30
0.0
 10
-474.741166
 20
-439.163603
 30
0.0
 10
-484.227099
 20
-439.163603
 30
0.0
  0
SPLINE
  5
13d
100
AcDbEntity
  8
Camada_1
 62
7
100
AcDbSpline
 70
8
 71
3
 72
8
 73
4
 74
0
 40
0
 40
0
 40
0
 40
0
 40
1
 40
1
 40
1
 40
1
 10
-494.523890
 20
-422.575937
 30
0.0
 10
-493.521497
 20
-422.575937
 30
0.0
 10
-492.560159
 20
-422.974136
 30
0.0
 10
-491.851360
 20
-423.682935
 30
0.0
  0
SPLINE
  5
13e
100
AcDbEntity
  8
Camada_1
 62
7
100
AcDbSpline
 70
8
 71
3
 72
8
 73
4
 74
0
 40
0
 40
0
 40
0
 40
0
 40
1
 40
1
 40
1
 40
1
 10
-491.851360
 20
-423.682935
 30
0.0
 10
-491.142561
 20
-424.391734
 30
0.0
 10
-490.744362
 20
-425.353072
 30
0.0
 10
-490.744362
 20
-426.355465
 30
0.0
  0
LWPOLYLINE
  5
13f
100
AcDbEntity
  8
Camada_1
 62
7
100
AcDbPolyline
 90
2
 70
0
 10
-507.738482
 20
-422.575937
 30
0.0
 10
-494.523890
 20
-422.575937
 30
0.0
  0
SPLINE
  5
140
100
AcDbEntity
  8
Camada_1
 62
7
100
AcDbSpline
 70
8
 71
3
 72
8
 73
4
 74
0
 40
0
 40
0
 40
0
 40
0
 40
1
 40
1
 40
1
 40
1
 10
-490.744362
 20
-436.182236
 30
0.0
 10
-490.744362
 20
-437.184629
 30
0.0
 10
-491.142561
 20
-438.145966
 30
0.0
 10
-491.851360
 20
-438.854765
 30
0.0
  0
SPLINE
  5
141
100
AcDbEntity
  8
Camada_1
 62
7
100
AcDbSpline
 70
8
 71
3
 72
8
 73
4
 74
0
 40
0
 40
0
 40
0
 40
0
 40
1
 40
1
 40
1
 40
1
 10
-491.851360
 20
-438.854765
 30
0.0
 10
-492.560159
 20
-439.563564
 30
0.0
 10
-493.521497
 20
-439.961763
 30
0.0
 10
-494.523890
 20
-439.961763
 30
0.0
  0
LWPOLYLINE
  5
142
100
AcDbEntity
  8
Camada_1
 62
7
100
AcDbPolyline
 90
2
 70
0
 10
-490.744362
 20
-426.355465
 30
0.0
 10
-490.744362
 20
-436.182236
 30
0.0
  0
SPLINE
  5
143
100
AcDbEntity
  8
Camada_1
 62
7
100
AcDbSpline
 70
8
 71
3
 72
8
 73
4
 74
0
 40
0
 40
0
 40
0
 40
0
 40
1
 40
1
 40
1
 40
1
 10
-507.738482
 20
-439.961763
 30
0.0
 10
-508.740875
 20
-439.961763
 30
0.0
 10
-509.702213
 20
-439.563564
 30
0.0
 10
-510.411011
 20
-438.854765
 30
0.0
  0
SPLINE
  5
144
100
AcDbEntity
  8
Camada_1
 62
7
100
AcDbSpline
 70
8
 71
3
 72
8
 73
4
 74
0
 40
0
 40
0
 40
0
 40
0
 40
1
 40
1
 40
1
 40
1
 10
-510.411011
 20
-438.854765
 30
0.0
 10
-511.119810
 20
-438.145966
 30
0.0
 10
-511.518009
 20
-437.184629
 30
0.0
 10
-511.518009
 20
-436.182236
 30
0.0
  0
LWPOLYLINE
  5
145
100
AcDbEntity
  8
Camada_1
 62
7
100
AcDbPolyline
 90
2
 70
0
 10
-494.523890
 20
-439.961763
 30
0.0
 10
-507.738482
 20
-439.961763
 30
0.0
  0
SPLINE
  5
146
100
AcDbEntity
  8
Camada_1
 62
7
100
AcDbSpline
 70
8
 71
3
 72
8
 73
4
 74
0
 40
0
 40
0
 40
0
 40
0
 40
1
 40
1
 40
1
 40
1
 10
-511.518009
 20
-426.355465
 30
0.0
 10
-511.518009
 20
-425.353072
 30
0.0
 10
-511.119810
 20
-424.391734
 30
0.0
 10
-510.411011
 20
-423.682935
 30
0.0
  0
SPLINE
  5
147
100
AcDbEntity
  8
Camada_1
 62
7
100
AcDbSpline
 70
8
 71
3
 72
8
 73
4
 74
0
 40
0
 40
0
 40
0
 40
0
 40
1
 40
1
 40
1
 40
1
 10
-510.411011
 20
-423.682935
 30
0.0
 10
-509.702213
 20
-422.974136
 30
0.0
 10
-508.740875
 20
-422.575937
 30
0.0
 10
-507.738482
 20
-422.575937
 30
0.0
  0
LWPOLYLINE
  5
148
100
AcDbEntity
  8
Camada_1
 62
7
100
AcDbPolyline
 90
2
 70
0
 10
-511.518009
 20
-436.182236
 30
0.0
 10
-511.518009
 20
-426.355465
 30
0.0
  0
LWPOLYLINE
  5
149
100
AcDbEntity
  8
Camada_1
 62
7
100
AcDbPolyline
 90
1
 70
1
 10
-507.738482
 20
-422.575937
 30
0.0
  0
SPLINE
  5
14a
100
AcDbEntity
  8
Camada_1
 62
7
100
AcDbSpline
 70
8
 71
3
 72
8
 73
4
 74
0
 40
0
 40
0
 40
0
 40
0
 40
1
 40
1
 40
1
 40
1
 10
-494.523890
 20
-405.190110
 30
0.0
 10
-493.521497
 20
-405.190110
 30
0.0
 10
-492.560159
 20
-405.588309
 30
0.0
 10
-491.851360
 20
-406.297108
 30
0.0
  0
SPLINE
  5
14b
100
AcDbEntity
  8
Camada_1
 62
7
100
AcDbSpline
 70
8
 71
3
 72
8
 73
4
 74
0
 40
0
 40
0
 40
0
 40
0
 40
1
 40
1
 40
1
 40
1
 10
-491.851360
 20
-406.297108
 30
0.0
 10
-491.142561
 20
-407.005907
 30
0.0
 10
-490.744362
 20
-407.967245
 30
0.0
 10
-490.744362
 20
-408.969638
 30
0.0
  0
LWPOLYLINE
  5
14c
100
AcDbEntity
  8
Camada_1
 62
7
100
AcDbPolyline
 90
2
 70
0
 10
-507.738482
 20
-405.190110
 30
0.0
 10
-494.523890
 20
-405.190110
 30
0.0
  0
SPLINE
  5
14d
100
AcDbEntity
  8
Camada_1
 62
7
100
AcDbSpline
 70
8
 71
3
 72
8
 73
4
 74
0
 40
0
 40
0
 40
0
 40
0
 40
1
 40
1
 40
1
 40
1
 10
-490.744362
 20
-418.796409
 30
0.0
 10
-490.744362
 20
-419.798802
 30
0.0
 10
-491.142561
 20
-420.760140
 30
0.0
 10
-491.851360
 20
-421.468939
 30
0.0
  0
SPLINE
  5
14e
100
AcDbEntity
  8
Camada_1
 62
7
100
AcDbSpline
 70
8
 71
3
 72
8
 73
4
 74
0
 40
0
 40
0
 40
0
 40
0
 40
1
 40
1
 40
1
 40
1
 10
-491.851360
 20
-421.468939
 30
0.0
 10
-492.560159
 20
-422.177738
 30
0.0
 10
-493.521497
 20
-422.575937
 30
0.0
 10
-494.523890
 20
-422.575937
 30
0.0
  0
LWPOLYLINE
  5
14f
100
AcDbEntity
  8
Camada_1
 62
7
100
AcDbPolyline
 90
2
 70
0
 10
-490.744362
 20
-408.969638
 30
0.0
 10
-490.744362
 20
-418.796409
 30
0.0
  0
SPLINE
  5
150
100
AcDbEntity
  8
Camada_1
 62
7
100
AcDbSpline
 70
8
 71
3
 72
8
 73
4
 74
0
 40
0
 40
0
 40
0
 40
0
 40
1
 40
1
 40
1
 40
1
 10
-507.738482
 20
-422.575937
 30
0.0
 10
-508.740875
 20
-422.575937
 30
0.0
 10
-509.702213
 20
-422.177738
 30
0.0
 10
-510.411011
 20
-421.468939
 30
0.0
  0
SPLINE
  5
151
100
AcDbEntity
  8
Camada_1
 62
7
100
AcDbSpline
 70
8
 71
3
 72
8
 73
4
 74
0
 40
0
 40
0
 40
0
 40
0
 40
1
 40
1
 40
1
 40
1
 10
-510.411011
 20
-421.468939
 30
0.0
 10
-511.119810
 20
-420.760140
 30
0.0
 10
-511.518009
 20
-419.798802
 30
0.0
 10
-511.518009
 20
-418.796409
 30
0.0
  0
LWPOLYLINE
  5
152
100
AcDbEntity
  8
Camada_1
 62
7
100
AcDbPolyline
 90
2
 70
0
 10
-494.523890
 20
-422.575937
 30
0.0
 10
-507.738482
 20
-422.575937
 30
0.0
  0
SPLINE
  5
153
100
AcDbEntity
  8
Camada_1
 62
7
100
AcDbSpline
 70
8
 71
3
 72
8
 73
4
 74
0
 40
0
 40
0
 40
0
 40
0
 40
1
 40
1
 40
1
 40
1
 10
-511.518009
 20
-408.969638
 30
0.0
 10
-511.518009
 20
-407.967245
 30
0.0
 10
-511.119810
 20
-407.005907
 30
0.0
 10
-510.411011
 20
-406.297108
 30
0.0
  0
SPLINE
  5
154
100
AcDbEntity
  8
Camada_1
 62
7
100
AcDbSpline
 70
8
 71
3
 72
8
 73
4
 74
0
 40
0
 40
0
 40
0
 40
0
 40
1
 40
1
 40
1
 40
1
 10
-510.411011
 20
-406.297108
 30
0.0
 10
-509.702213
 20
-405.588309
 30
0.0
 10
-508.740875
 20
-405.190110
 30
0.0
 10
-507.738482
 20
-405.190110
 30
0.0
  0
LWPOLYLINE
  5
155
100
AcDbEntity
  8
Camada_1
 62
7
100
AcDbPolyline
 90
2
 70
0
 10
-511.518009
 20
-418.796409
 30
0.0
 10
-511.518009
 20
-408.969638
 30
0.0
  0
LWPOLYLINE
  5
156
100
AcDbEntity
  8
Camada_1
 62
7
100
AcDbPolyline
 90
1
 70
1
 10
-507.738482
 20
-405.190110
 30
0.0
  0
SPLINE
  5
157
100
AcDbEntity
  8
Camada_1
 62
7
100
AcDbSpline
 70
8
 71
3
 72
8
 73
4
 74
0
 40
0
 40
0
 40
0
 40
0
 40
1
 40
1
 40
1
 40
1
 10
-664.386672
 20
-134.208680
 30
0.0
 10
-663.384279
 20
-134.208680
 30
0.0
 10
-662.422941
 20
-134.606879
 30
0.0
 10
-661.714142
 20
-135.315678
 30
0.0
  0
SPLINE
  5
158
100
AcDbEntity
  8
Camada_1
 62
7
100
AcDbSpline
 70
8
 71
3
 72
8
 73
4
 74
0
 40
0
 40
0
 40
0
 40
0
 40
1
 40
1
 40
1
 40
1
 10
-661.714142
 20
-135.315678
 30
0.0
 10
-661.005344
 20
-136.024477
 30
0.0
 10
-660.607144
 20
-136.985815
 30
0.0
 10
-660.607144
 20
-137.988208
 30
0.0
  0
LWPOLYLINE
  5
159
100
AcDbEntity
  8
Camada_1
 62
7
100
AcDbPolyline
 90
2
 70
0
 10
-666.313550
 20
-134.208680
 30
0.0
 10
-664.386672
 20
-134.208680
 30
0.0
  0
SPLINE
  5
15a
100
AcDbEntity
  8
Camada_1
 62
7
100
AcDbSpline
 70
8
 71
3
 72
8
 73
4
 74
0
 40
0
 40
0
 40
0
 40
0
 40
1
 40
1
 40
1
 40
1
 10
-660.607144
 20
-147.814979
 30
0.0
 10
-660.607144
 20
-148.817372
 30
0.0
 10
-661.005344
 20
-149.778710
 30
0.0
 10
-661.714142
 20
-150.487509
 30
0.0
  0
SPLINE
  5
15b
100
AcDbEntity
  8
Camada_1
 62
7
100
AcDbSpline
 70
8
 71
3
 72
8
 73
4
 74
0
 40
0
 40
0
 40
0
 40
0
 40
1
 40
1
 40
1
 40
1
 10
-661.714142
 20
-150.487509
 30
0.0
 10
-662.422941
 20
-151.196308
 30
0.0
 10
-663.384279
 20
-151.594507
 30
0.0
 10
-664.386672
 20
-151.594507
 30
0.0
  0
LWPOLYLINE
  5
15c
100
AcDbEntity
  8
Camada_1
 62
7
100
AcDbPolyline
 90
2
 70
0
 10
-660.607144
 20
-137.988208
 30
0.0
 10
-660.607144
 20
-147.814979
 30
0.0
  0
SPLINE
  5
15d
100
AcDbEntity
  8
Camada_1
 62
7
100
AcDbSpline
 70
8
 71
3
 72
8
 73
4
 74
0
 40
0
 40
0
 40
0
 40
0
 40
1
 40
1
 40
1
 40
1
 10
-666.313550
 20
-151.594507
 30
0.0
 10
-667.315943
 20
-151.594507
 30
0.0
 10
-668.277280
 20
-151.196308
 30
0.0
 10
-668.986079
 20
-150.487509
 30
0.0
  0
SPLINE
  5
15e
100
AcDbEntity
  8
Camada_1
 62
7
100
AcDbSpline
 70
8
 71
3
 72
8
 73
4
 74
0
 40
0
 40
0
 40
0
 40
0
 40
1
 40
1
 40
1
 40
1
 10
-668.986079
 20
-150.487509
 30
0.0
 10
-669.694878
 20
-149.778710
 30
0.0
 10
-670.093077
 20
-148.817372
 30
0.0
 10
-670.093077
 20
-147.814979
 30
0.0
  0
LWPOLYLINE
  5
15f
100
AcDbEntity
  8
Camada_1
 62
7
100
AcDbPolyline
 90
2
 70
0
 10
-664.386672
 20
-151.594507
 30
0.0
 10
-666.313550
 20
-151.594507
 30
0.0
  0
SPLINE
  5
160
100
AcDbEntity
  8
Camada_1
 62
7
100
AcDbSpline
 70
8
 71
3
 72
8
 73
4
 74
0
 40
0
 40
0
 40
0
 40
0
 40
1
 40
1
 40
1
 40
1
 10
-670.093077
 20
-137.988208
 30
0.0
 10
-670.093077
 20
-136.985815
 30
0.0
 10
-669.694878
 20
-136.024477
 30
0.0
 10
-668.986079
 20
-135.315678
 30
0.0
  0
SPLINE
  5
161
100
AcDbEntity
  8
Camada_1
 62
7
100
AcDbSpline
 70
8
 71
3
 72
8
 73
4
 74
0
 40
0
 40
0
 40
0
 40
0
 40
1
 40
1
 40
1
 40
1
 10
-668.986079
 20
-135.315678
 30
0.0
 10
-668.277280
 20
-134.606879
 30
0.0
 10
-667.315943
 20
-134.208680
 30
0.0
 10
-666.313550
 20
-134.208680
 30
0.0
  0
LWPOLYLINE
  5
162
100
AcDbEntity
  8
Camada_1
 62
7
100
AcDbPolyline
 90
2
 70
0
 10
-670.093077
 20
-147.814979
 30
0.0
 10
-670.093077
 20
-137.988208
 30
0.0
  0
LWPOLYLINE
  5
163
100
AcDbEntity
  8
Camada_1
 62
7
100
AcDbPolyline
 90
1
 70
1
 10
-666.313550
 20
-134.208680
 30
0.0
  0
ENDSEC
  0
SECTION
  2
OBJECTS
  0
DICTIONARY
  5
C
330
0
100
AcDbDictionary
  3
ACAD_GROUP
350
D
  3
ACAD_MLINESTYLE
350
17
  0
DICTIONARY
  5
D
330
C
100
AcDbDictionary
  0
DICTIONARY
  5
1A
330
C
100
AcDbDictionary
  0
DICTIONARY
  5
17
330
C
100
AcDbDictionary
  3
STANDARD
350
18
  0
DICTIONARY
  5
19
330
C
100
AcDbDictionary
  0
ENDSEC
  0
EOF
